<svg width="466" height="41" viewBox="0 0 466 41" fill="none" xmlns="http://www.w3.org/2000/svg">
<path d="M20.7942 15.2219H20.6722L15.6544 23.5577H26.4765L20.7942 15.2219ZM13.1184 27.2057L9.37096 32.0426H0L17.77 8.49992H24.6638L41.9546 32.0426H32.4616L28.9537 27.2057H13.1184Z" fill="#1D1D1D"/>
<path d="M72.2844 28.1484H84.8559V32.0405H63.3972V9.10811H72.2844V28.1484Z" fill="#1D1D1D"/>
<path d="M121.239 32.0405H112.352V13.0048H103.166V9.10811H130.429V13.0048H121.239V32.0405Z" fill="#1D1D1D"/>
<path d="M161.313 13.0032V18.0526H175.457V21.9447H161.313V28.1468H176V32.0389H152.425V9.10653H176V13.0032H161.313Z" fill="#1D1D1D"/>
<path d="M200.652 8.50063H207.062L231.057 24.5303H231.179V9.10637H240.066V32.4999H233.656L209.657 16.4702H209.539V32.0388H200.652V8.50063Z" fill="#1D1D1D"/>
<path fill-rule="evenodd" clip-rule="evenodd" d="M256.066 41V0L256.616 0V41H256.066Z" fill="#1D1D1D"/>
<g clip-path="url(#clip0_537_41)">
<path d="M375.315 9.67332C372.089 9.67332 370.679 9.56368 369.661 9.56368C369.488 9.70465 369.41 10.7698 369.582 10.989C370.804 11.177 371.462 11.2866 372.151 11.4589C373.185 11.7566 373.295 12.4144 373.357 13.3542C373.467 15.1868 373.467 26.6837 373.436 31.3514C373.389 34.5311 373.248 35.7528 372.261 37.0215C371.634 37.789 370.82 38.0083 369.943 38.0083C368.768 38.0083 366.669 37.0999 365.573 36.3637C365.306 36.9119 364.805 38.4469 364.68 39.1361C364.68 39.1987 364.789 39.606 364.821 39.7156C365.197 40.4518 366.481 41 367.875 41C370.334 41 373.467 39.1361 375.409 35.6901C376.474 33.8262 376.803 31.7743 376.944 28.8922C377.054 25.6029 377.054 14.3253 377.132 12.7589C377.164 11.8819 377.383 11.5529 378.009 11.365C378.479 11.2553 379.153 11.1144 379.999 10.9577C380.218 10.8167 380.218 9.67332 380.03 9.53235C378.918 9.53235 377.524 9.64199 375.284 9.64199" fill="#1D1D1D"/>
<path d="M432.716 30.5369C431.98 30.3176 431.682 29.9104 431.62 28.9236C431.51 27.6392 431.51 23.7703 431.51 20.4967C431.51 16.2832 431.51 14.6386 431.588 13.3542C431.667 12.1794 431.745 11.6626 432.591 11.3806C433.108 11.2083 433.797 11.083 434.69 10.9734C434.909 10.8011 434.909 9.7673 434.69 9.54801C434.141 9.54801 431.682 9.65766 429.724 9.65766C427.766 9.65766 425.683 9.54801 424.759 9.54801C424.539 9.73597 424.477 10.8011 424.727 10.9734C425.902 11.1144 426.67 11.2397 427.156 11.4433C427.673 11.6312 427.86 12.0228 427.892 12.571C427.939 13.965 427.939 17.4423 427.939 19.3376C427.939 19.4785 427.829 19.6352 427.672 19.6352C427.344 19.6665 426.529 19.6665 421.861 19.7135C417.084 19.7135 416.238 19.7135 415.909 19.6665C415.768 19.5882 415.658 19.3689 415.658 19.2279C415.658 15.5314 415.627 14.247 415.69 13.0096C415.737 11.9445 415.956 11.5843 416.676 11.365C417.115 11.2553 417.82 11.1144 418.666 10.9577C418.854 10.8167 418.885 9.75164 418.697 9.53235C417.71 9.53235 416.426 9.64199 413.591 9.64199C411.1 9.64199 409.362 9.53235 408.625 9.53235C408.437 9.72031 408.359 10.7384 408.547 10.9577C409.612 11.0987 410.38 11.224 410.975 11.3963C411.821 11.6469 411.962 12.0542 412.04 13.0722C412.071 13.7301 412.071 17.317 412.071 20.8726C412.071 24.0522 412.071 26.809 412.04 28.0464C411.962 29.7381 411.742 30.2863 410.709 30.5839C410.16 30.7249 409.534 30.8032 408.578 30.9441C408.437 31.1634 408.437 32.2285 408.61 32.4165C409.315 32.4165 411.225 32.3069 413.904 32.3069C416.849 32.3069 418.791 32.4165 419.198 32.4165C419.386 32.3069 419.605 31.1634 419.417 30.9441C418.305 30.8032 417.538 30.6152 416.99 30.4742C416.003 30.2236 415.737 29.8477 415.674 28.6103C415.643 27.8741 415.643 24.0992 415.643 22.063C415.643 22.0317 415.721 21.875 415.784 21.875C416.112 21.7967 418.948 21.7967 421.814 21.7967C423.913 21.7967 426.811 21.7967 427.626 21.828C427.813 21.828 427.923 22.016 427.923 22.0787C427.923 24.3812 427.954 27.8585 427.876 29.0019C427.798 29.9104 427.579 30.3176 426.952 30.5369C426.435 30.6779 425.808 30.8345 424.602 30.9441C424.414 31.2104 424.414 32.2599 424.602 32.4165C425.62 32.3852 427.547 32.3069 429.568 32.3069C431.588 32.3069 434.235 32.4165 435.113 32.4165C435.395 32.3069 435.473 31.1634 435.332 30.9441C434.126 30.8345 433.264 30.6465 432.732 30.5056" fill="#1D1D1D"/>
<path d="M394.781 9.01566C390.881 9.01566 386.887 10.8796 384.85 13.558C383.19 15.6413 382.36 18.0221 382.36 20.7945C382.36 24.2718 383.315 27.2792 385.587 29.7227C387.576 31.8059 390.333 32.9806 394.076 32.9806C397.82 32.9806 401.501 31.3673 403.928 28.219C405.479 26.1357 406.247 23.8176 406.247 20.4186C406.247 14.4822 402.393 9 394.781 9M399.261 29.801C398.337 30.5685 396.943 30.9757 395.47 30.9757C393.716 30.9757 392.385 30.6468 391.1 29.8793C387.936 27.937 386.432 23.9429 386.432 19.9644C386.432 16.2678 387.717 13.0412 390.333 11.6158C391.21 11.1302 392.244 10.8483 393.418 10.8483C395.298 10.8483 396.802 11.3182 398.086 12.164C400.905 14.0749 402.268 17.7245 402.268 21.8283C402.268 25.1646 401.501 28.078 399.261 29.801Z" fill="#1D1D1D"/>
<path d="M319.213 27.7802C317.788 24.5222 313.7 13.8398 312.964 11.7879C312.713 11.0517 312.494 10.3625 312.306 9.62634C312.118 9.67333 311.726 9.67333 310.833 9.67333C310.129 9.67333 309.659 9.67333 309.471 9.62634C309.361 10.2059 309.032 11.1614 308.735 12.0072C307.92 14.388 304.364 23.5668 302.735 27.42C301.451 30.3803 300.934 30.5996 298.224 30.9755C298.083 31.1635 298.083 32.2599 298.224 32.4479C298.914 32.4479 300.135 32.3383 302.516 32.3383C304.897 32.3383 306.886 32.4479 307.622 32.4479C307.81 32.2599 307.873 31.1635 307.732 30.9755C307.074 30.8972 306.26 30.7876 305.79 30.6779C304.725 30.4273 304.584 30.1767 304.584 29.4719C304.584 28.767 305.539 26.3548 306.307 24.2716C306.307 24.1933 306.573 23.9427 306.745 23.9427C307.153 23.9114 307.372 23.9114 309.721 23.9114C311.084 23.9114 312.776 23.9114 313.434 23.9427C313.512 23.9427 313.731 24.021 313.794 24.1933C314.389 25.6187 315.345 28.1091 315.814 29.6442C315.893 29.8948 315.814 30.3803 315.376 30.5526C314.828 30.7406 314.06 30.8502 313.246 30.9599C313.058 31.1478 313.105 32.2443 313.246 32.4322C313.982 32.4322 316.363 32.3226 318.571 32.3226C320.67 32.3226 322.424 32.4009 323.38 32.4322C323.536 32.2443 323.677 31.1165 323.458 30.9599C320.67 30.5996 320.372 30.3803 319.198 27.7802M312.713 21.7811C312.228 21.8125 311.209 21.8125 310.285 21.8125C309.22 21.8125 307.779 21.8125 307.372 21.7811C307.262 21.7341 307.231 21.6402 307.231 21.5305C307.936 19.3376 309.251 15.97 309.878 14.0278C309.956 13.9494 310.066 13.9964 310.097 13.9964C310.724 15.4531 312.196 19.5256 312.885 21.4209C312.917 21.6088 312.807 21.7811 312.697 21.7811" fill="#1D1D1D"/>
<path d="M349.584 9.67336C346.859 9.67336 345.104 9.56372 344.18 9.56372C343.992 9.75168 343.992 10.8011 344.18 10.9891C345.245 11.1301 346.122 11.318 346.859 11.506C348.033 11.8036 348.253 12.2735 348.331 13.417C348.472 16.2364 348.441 21.6559 348.441 26.8092C348.441 26.8875 348.362 26.9188 348.284 26.8875C346.342 24.585 339.387 16.2051 335.832 11.6626C334.876 10.4565 334.735 10.1589 334.578 9.68903H332.887C330.537 9.68903 328.626 9.57938 327.483 9.57938C327.295 9.76734 327.264 10.8168 327.483 11.0048C328.877 11.1457 329.723 11.412 330.428 11.6313C331.383 12.0385 331.571 12.8844 331.571 13.4953C331.461 21.2487 331.383 26.5899 331.211 28.6731C331.133 29.7696 330.694 30.2864 329.848 30.5684C329.269 30.7564 328.485 30.866 327.608 30.9756C327.452 31.1636 327.42 32.3384 327.608 32.448C328.407 32.448 329.958 32.3384 332.605 32.3384C334.845 32.3384 336.536 32.448 337.57 32.448C337.758 32.2287 337.821 31.2419 337.648 30.9756C336.615 30.8347 335.816 30.7564 335.252 30.5684C334.187 30.3178 333.78 29.7696 333.717 28.5948C333.576 26.4802 333.607 18.7425 333.639 14.8737C333.639 14.8423 333.78 14.7954 333.827 14.8737C336.505 18.21 345.59 29.6286 347.673 32.5576C348.033 32.4793 350.179 32.448 350.571 32.5263C350.539 31.2732 350.492 29.1274 350.492 27.4044C350.602 18.7739 350.571 16.2834 350.79 13.4326C350.9 12.3675 351.119 11.7879 352.153 11.459C352.56 11.318 353.171 11.1614 353.876 11.0204C354.064 10.8011 354.095 9.78301 353.876 9.59505C353.359 9.59505 350.931 9.70469 349.568 9.70469" fill="#1D1D1D"/>
<path d="M465.689 9.56372C465.172 9.56372 462.744 9.67336 461.397 9.67336C458.672 9.67336 456.918 9.56372 455.994 9.56372C455.806 9.75168 455.806 10.8168 455.994 10.9891C457.059 11.1301 457.936 11.318 458.672 11.506C459.847 11.8036 460.066 12.2735 460.144 13.417C460.301 16.2364 460.254 21.6559 460.254 26.8092C460.254 26.8875 460.176 26.9188 460.113 26.8875C458.155 24.585 451.216 16.2051 447.661 11.6626C446.705 10.4565 446.564 10.1589 446.408 9.68903H444.716C442.366 9.68903 440.455 9.57938 439.312 9.57938C439.124 9.76734 439.093 10.8325 439.312 11.0048C440.706 11.1457 441.552 11.412 442.257 11.6313C443.212 12.0385 443.4 12.8844 443.4 13.4953C443.291 21.2487 443.212 26.5899 443.04 28.6731C442.962 29.7696 442.523 30.2864 441.677 30.5684C441.082 30.7564 440.314 30.866 439.437 30.9756C439.296 31.1636 439.249 32.3384 439.437 32.448C440.252 32.448 441.787 32.3384 444.434 32.3384C446.674 32.3384 448.365 32.448 449.399 32.448C449.587 32.2287 449.666 31.2419 449.478 30.9756C448.444 30.8347 447.645 30.7564 447.081 30.5684C446.016 30.3178 445.609 29.7696 445.546 28.5948C445.405 26.4802 445.436 18.7425 445.468 14.8737C445.468 14.8423 445.609 14.7954 445.656 14.8737C448.334 18.21 457.419 29.6286 459.502 32.5576C459.862 32.4793 462.008 32.448 462.4 32.5263C462.369 31.2732 462.322 29.1274 462.322 27.4044C462.431 18.7739 462.4 16.2834 462.619 13.4326C462.729 12.3675 462.948 11.7879 463.982 11.459C464.389 11.318 465.016 11.1614 465.705 11.0204C465.893 10.8011 465.924 9.78301 465.705 9.59505" fill="#1D1D1D"/>
<path d="M293.181 12.1325C291.223 10.4409 288.513 9.56372 285.286 9.56372C281.433 9.56372 279.992 9.67336 277.94 9.67336C276.828 9.67336 273.93 9.56372 273.319 9.56372C273.132 9.78301 273.1 10.7698 273.163 10.9891C274.087 11.0987 274.745 11.2084 275.215 11.318C276.17 11.5373 276.64 11.8349 276.765 12.9627C276.844 14.3255 276.797 18.6016 276.797 20.7944C276.797 23.8645 276.828 26.5742 276.718 28.8454C276.64 30.0515 276.202 30.4118 275.497 30.5997C274.839 30.7407 274.103 30.8973 272.74 30.96C272.552 31.1479 272.599 32.1347 272.74 32.4323H273.836C277 32.4637 280.791 32.542 282.984 32.542C287.135 32.542 290.048 31.5865 292.288 29.9105C294.528 28.2972 296.768 25.4465 296.768 20.4968C296.768 17.0196 295.514 14.1688 293.165 12.1169M290.032 28.9237C288.341 30.4587 286.618 30.7877 284.848 30.7877C283.485 30.7877 281.95 30.5371 281.167 29.9105C280.697 29.5816 280.478 28.8141 280.431 28.3755C280.352 27.8586 280.352 23.6138 280.352 20.5751C280.352 17.5364 280.352 12.6025 280.431 11.9446C280.431 11.8036 280.65 11.506 280.76 11.4277C281.167 11.2397 281.856 11.2084 282.561 11.2084C284.957 11.2084 287.041 11.6156 288.654 12.6338C291.52 14.3881 292.93 17.3955 292.93 21.092C292.93 24.7886 291.755 27.3574 290.017 28.9237" fill="#1D1D1D"/>
</g>
<defs>
<clipPath id="clip0_537_41">
<rect width="193.242" height="41" fill="white" transform="translate(272.616)"/>
</clipPath>
</defs>
</svg>
